<svg width="16" height="16" viewBox="0 0 16 16" fill="none" xmlns="http://www.w3.org/2000/svg">
<path d="M15.231 7.23654H3.47676L10.512 1.12939C10.6245 1.03096 10.5562 0.848145 10.4076 0.848145H8.62966C8.55131 0.848145 8.47698 0.876269 8.41872 0.926493L0.82698 7.51377C0.757448 7.57404 0.701684 7.64855 0.663466 7.73226C0.625248 7.81597 0.605469 7.90691 0.605469 7.99893C0.605469 8.09094 0.625248 8.18189 0.663466 8.26559C0.701684 8.3493 0.757448 8.42381 0.82698 8.48408L8.46292 15.1115C8.49305 15.1377 8.52921 15.1517 8.56738 15.1517H10.4056C10.5542 15.1517 10.6225 14.9669 10.51 14.8705L3.47676 8.76332H15.231C15.3194 8.76332 15.3917 8.691 15.3917 8.60261V7.39725C15.3917 7.30886 15.3194 7.23654 15.231 7.23654Z" fill="black" fill-opacity="0.45"/>
</svg>
