<svg width="36" height="36" viewBox="0 0 36 36" fill="none" xmlns="http://www.w3.org/2000/svg">
<g id="Build">
<path id="Vector" d="M34.2314 5.87109H12.535C11.8239 5.87109 11.2493 6.44565 11.2493 7.15681V16.639H1.76716C1.056 16.639 0.481445 17.2135 0.481445 17.9247V28.8532C0.481445 29.5644 1.056 30.139 1.76716 30.139H23.4636C24.1748 30.139 24.7493 29.5644 24.7493 28.8532V19.3711H34.2314C34.9426 19.3711 35.5172 18.7965 35.5172 18.0854V7.15681C35.5172 6.44565 34.9426 5.87109 34.2314 5.87109ZM13.9814 8.60324H22.0172V16.639H13.9814V8.60324ZM11.2493 27.4068H3.21359V19.3711H11.2493V27.4068ZM22.0172 27.4068H13.9814V19.3711H22.0172V27.4068ZM32.785 16.639H24.7493V8.60324H32.785V16.639Z" fill="#14B8A6"/>
</g>
</svg>
