<svg width="14" height="14" viewBox="0 0 14 14" fill="none" xmlns="http://www.w3.org/2000/svg">
<g id="wrapper" clip-path="url(#clip0_180461_3156)">
<path id="Union" d="M7 0.875366C3.61758 0.875366 0.875 3.61794 0.875 7.00037C0.875 10.3828 3.61758 13.1254 7 13.1254C10.3824 13.1254 13.125 10.3828 13.125 7.00037C13.125 3.61794 10.3824 0.875366 7 0.875366ZM9.41309 8.88298L9.02207 9.41619C9.01357 9.4278 9.00285 9.43761 8.99054 9.44507C8.97823 9.45253 8.96457 9.45747 8.95034 9.45963C8.93611 9.46179 8.92159 9.46112 8.90763 9.45765C8.89366 9.45419 8.88051 9.44799 8.86895 9.43943L6.60762 7.7906C6.59353 7.78048 6.58208 7.76713 6.57423 7.75167C6.56638 7.7362 6.56235 7.71908 6.5625 7.70173V3.93787C6.5625 3.87771 6.61172 3.82849 6.67188 3.82849H7.32949C7.38965 3.82849 7.43887 3.87771 7.43887 3.93787V7.32166L9.38848 8.73123C9.4377 8.7654 9.44863 8.83377 9.41309 8.88298Z" fill="black" fill-opacity="0.45"/>
</g>
<defs>
<clipPath id="clip0_180461_3156">
<rect width="14" height="14" fill="white" transform="translate(0 0.000244141)"/>
</clipPath>
</defs>
</svg>
