<svg width="14" height="14" viewBox="0 0 14 14" fill="none" xmlns="http://www.w3.org/2000/svg">
<g id="wrapper" clip-path="url(#clip0_180461_4507)">
<path id="Union" d="M11.375 0.875366H2.625C2.38301 0.875366 2.1875 1.07087 2.1875 1.31287V4.37537H11.8125V1.31287C11.8125 1.07087 11.617 0.875366 11.375 0.875366ZM3.9375 3.17224C3.63535 3.17224 3.39062 2.92751 3.39062 2.62537C3.39062 2.32322 3.63535 2.07849 3.9375 2.07849C4.23965 2.07849 4.48438 2.32322 4.48438 2.62537C4.48438 2.92751 4.23965 3.17224 3.9375 3.17224ZM2.1875 12.6879C2.1875 12.9299 2.38301 13.1254 2.625 13.1254H11.375C11.617 13.1254 11.8125 12.9299 11.8125 12.6879V9.62537H2.1875V12.6879ZM3.9375 10.8285C4.23965 10.8285 4.48438 11.0732 4.48438 11.3754C4.48438 11.6775 4.23965 11.9222 3.9375 11.9222C3.63535 11.9222 3.39062 11.6775 3.39062 11.3754C3.39062 11.0732 3.63535 10.8285 3.9375 10.8285ZM2.1875 8.75037H11.8125V5.25037H2.1875V8.75037ZM3.9375 6.45349C4.23965 6.45349 4.48438 6.69822 4.48438 7.00037C4.48438 7.30251 4.23965 7.54724 3.9375 7.54724C3.63535 7.54724 3.39062 7.30251 3.39062 7.00037C3.39062 6.69822 3.63535 6.45349 3.9375 6.45349Z" fill="black" fill-opacity="0.45"/>
</g>
<defs>
<clipPath id="clip0_180461_4507">
<rect width="14" height="14" fill="white" transform="translate(0 0.000244141)"/>
</clipPath>
</defs>
</svg>
