<svg width="14" height="14" viewBox="0 0 14 14" xmlns="http://www.w3.org/2000/svg">
<path id="Union" d="M12.9406 6.90468L7.30918 1.27733C7.26863 1.23671 7.22047 1.20447 7.16745 1.18248C7.11443 1.16049 7.05759 1.14917 7.0002 1.14917C6.9428 1.14917 6.88596 1.16049 6.83294 1.18248C6.77992 1.20447 6.73176 1.23671 6.69121 1.27733L1.05977 6.90468C0.895703 7.06874 0.802734 7.29159 0.802734 7.52401C0.802734 8.00663 1.19512 8.39901 1.67773 8.39901H2.27109V12.4144C2.27109 12.6564 2.4666 12.8519 2.70859 12.8519H6.1252V9.78944H7.65645V12.8519H11.2918C11.5338 12.8519 11.7293 12.6564 11.7293 12.4144V8.39901H12.3227C12.5551 8.39901 12.7779 8.30741 12.942 8.14198C13.2824 7.80018 13.2824 7.24647 12.9406 6.90468Z"/>
</svg>
