<svg width="16" height="16" viewBox="0 0 16 16" fill="none" xmlns="http://www.w3.org/2000/svg">
<g id="MenuFold">
<rect width="16" height="16" fill="white"/>
<path id="Vector" d="M6.14314 6.75054H14.7146C14.7931 6.75054 14.8574 6.68626 14.8574 6.60769V5.60769C14.8574 5.52911 14.7931 5.46483 14.7146 5.46483H6.14314C6.06457 5.46483 6.00028 5.52911 6.00028 5.60769V6.60769C6.00028 6.68626 6.06457 6.75054 6.14314 6.75054ZM6.00028 10.3934C6.00028 10.472 6.06457 10.5363 6.14314 10.5363H14.7146C14.7931 10.5363 14.8574 10.472 14.8574 10.3934V9.3934C14.8574 9.31483 14.7931 9.25054 14.7146 9.25054H6.14314C6.06457 9.25054 6.00028 9.31483 6.00028 9.3934V10.3934ZM15.0003 1.71483H1.00028C0.921708 1.71483 0.857422 1.77911 0.857422 1.85769V2.85769C0.857422 2.93626 0.921708 3.00054 1.00028 3.00054H15.0003C15.0789 3.00054 15.1431 2.93626 15.1431 2.85769V1.85769C15.1431 1.77911 15.0789 1.71483 15.0003 1.71483ZM15.0003 13.0005H1.00028C0.921708 13.0005 0.857422 13.0648 0.857422 13.1434V14.1434C0.857422 14.222 0.921708 14.2863 1.00028 14.2863H15.0003C15.0789 14.2863 15.1431 14.222 15.1431 14.1434V13.1434C15.1431 13.0648 15.0789 13.0005 15.0003 13.0005ZM0.918136 8.12376L3.70921 10.322C3.81278 10.4041 3.96635 10.3309 3.96635 10.1988V5.80233C3.96635 5.67019 3.81457 5.59697 3.70921 5.67911L0.918136 7.87733C0.899369 7.89192 0.884182 7.91061 0.873736 7.93196C0.863289 7.95331 0.857859 7.97677 0.857859 8.00054C0.857859 8.02432 0.863289 8.04777 0.873736 8.06913C0.884182 8.09048 0.899369 8.10917 0.918136 8.12376Z" fill="black" fill-opacity="0.45"/>
</g>
</svg>
