<svg width="14" height="14" viewBox="0 0 14 14" fill="none" xmlns="http://www.w3.org/2000/svg">
<g id="wrapper" clip-path="url(#clip0_180399_3340)">
<path id="Union" d="M11.6484 0.875305H2.35156C2.10957 0.875305 1.91406 1.07081 1.91406 1.31281V10.3362C1.91406 10.5782 2.10957 10.7737 2.35156 10.7737H11.6484C11.8904 10.7737 12.0859 10.5782 12.0859 10.3362V1.31281C12.0859 1.07081 11.8904 0.875305 11.6484 0.875305ZM4.10156 4.48468C4.10156 4.03214 4.46934 3.66437 4.92188 3.66437C5.37441 3.66437 5.74219 4.03214 5.74219 4.48468C5.74219 4.93722 5.37441 5.30499 4.92188 5.30499C4.46934 5.30499 4.10156 4.93722 4.10156 4.48468ZM9.1875 7.87531C9.1875 7.93546 9.13828 7.98468 9.07812 7.98468C9.07812 7.98468 7.81467 8.16697 7 8.16697C6.18533 8.16697 4.92188 7.98468 4.92188 7.98468C4.86172 7.98468 4.8125 7.93546 4.8125 7.87531V7.05499C4.8125 6.99484 4.86172 6.94562 4.92188 6.94562C4.92188 6.94562 6.18263 7.19475 7 7.19475C7.81737 7.19475 9.07812 6.94562 9.07812 6.94562C9.13828 6.94562 9.1875 6.99484 9.1875 7.05499V7.87531ZM9.07812 5.30499C8.62559 5.30499 8.25781 4.93722 8.25781 4.48468C8.25781 4.03214 8.62559 3.66437 9.07812 3.66437C9.53066 3.66437 9.89844 4.03214 9.89844 4.48468C9.89844 4.93722 9.53066 5.30499 9.07812 5.30499ZM10.9238 11.8128H3.07617C2.8875 11.8128 2.73438 12.0083 2.73438 12.2503V13.0159C2.73438 13.0761 2.77266 13.1253 2.81914 13.1253H11.1795C11.226 13.1253 11.2643 13.0761 11.2643 13.0159V12.2503C11.2656 12.0083 11.1125 11.8128 10.9238 11.8128Z" fill="black" fill-opacity="0.45"/>
</g>
<defs>
<clipPath id="clip0_180399_3340">
<rect width="14" height="14" fill="white"/>
</clipPath>
</defs>
</svg>
