<svg width="14" height="14" viewBox="0 0 14 14" fill="none" xmlns="http://www.w3.org/2000/svg">
<g id="Swap">
<path id="Vector" d="M12.2486 8.25049H1.37517C1.30642 8.25049 1.25017 8.30674 1.25017 8.37549V9.31299C1.25017 9.38174 1.30642 9.43799 1.37517 9.43799H10.8314L8.57673 12.2974C8.51267 12.3786 8.57048 12.5005 8.67517 12.5005H9.80798C9.88455 12.5005 9.95642 12.4661 10.0049 12.4052L12.6424 9.05986C12.9002 8.73174 12.6674 8.25049 12.2486 8.25049ZM12.6252 4.56299H3.16892L5.42361 1.70361C5.48767 1.62236 5.42986 1.50049 5.32517 1.50049H4.19236C4.1158 1.50049 4.04392 1.53486 3.99548 1.5958L1.35798 4.94111C1.10017 5.26924 1.33298 5.75049 1.75017 5.75049H12.6252C12.6939 5.75049 12.7502 5.69424 12.7502 5.62549V4.68799C12.7502 4.61924 12.6939 4.56299 12.6252 4.56299Z" fill="black" fill-opacity="0.45"/>
</g>
</svg>
