<svg width="12" height="14" viewBox="0 0 12 14" fill="none" xmlns="http://www.w3.org/2000/svg">
<path d="M11.4153 10.9324C11.1206 10.2342 10.6928 9.60007 10.1559 9.06522C9.62069 8.52883 8.98662 8.10117 8.28876 7.80585C8.28251 7.80272 8.27626 7.80116 8.27001 7.79804C9.24345 7.09491 9.87626 5.9496 9.87626 4.65741C9.87626 2.51678 8.14188 0.78241 6.00126 0.78241C3.86063 0.78241 2.12626 2.51678 2.12626 4.65741C2.12626 5.9496 2.75907 7.09491 3.73251 7.7996C3.72626 7.80272 3.72001 7.80429 3.71376 7.80741C3.01376 8.10272 2.38563 8.52616 1.84657 9.06679C1.31018 9.60205 0.882517 10.2361 0.587197 10.934C0.297076 11.6172 0.140607 12.3497 0.12626 13.0918C0.125843 13.1085 0.128768 13.1251 0.134863 13.1406C0.140957 13.1561 0.150099 13.1703 0.161748 13.1822C0.173397 13.1941 0.187318 13.2036 0.202691 13.2101C0.218064 13.2166 0.234578 13.2199 0.25126 13.2199H1.18876C1.25751 13.2199 1.3122 13.1652 1.31376 13.098C1.34501 11.8918 1.82938 10.7621 2.68563 9.90585C3.57157 9.01991 4.74814 8.53241 6.00126 8.53241C7.25438 8.53241 8.43095 9.01991 9.31688 9.90585C10.1731 10.7621 10.6575 11.8918 10.6888 13.098C10.6903 13.1668 10.745 13.2199 10.8138 13.2199H11.7513C11.7679 13.2199 11.7845 13.2166 11.7998 13.2101C11.8152 13.2036 11.8291 13.1941 11.8408 13.1822C11.8524 13.1703 11.8616 13.1561 11.8677 13.1406C11.8738 13.1251 11.8767 13.1085 11.8763 13.0918C11.8606 12.3449 11.7059 11.6183 11.4153 10.9324ZM6.00126 7.34491C5.28407 7.34491 4.60907 7.06522 4.10126 6.55741C3.59345 6.0496 3.31376 5.3746 3.31376 4.65741C3.31376 3.94022 3.59345 3.26522 4.10126 2.75741C4.60907 2.2496 5.28407 1.96991 6.00126 1.96991C6.71845 1.96991 7.39345 2.2496 7.90126 2.75741C8.40907 3.26522 8.68876 3.94022 8.68876 4.65741C8.68876 5.3746 8.40907 6.0496 7.90126 6.55741C7.39345 7.06522 6.71845 7.34491 6.00126 7.34491Z" fill="#14B8A6"/>
</svg>
