<svg width="16" height="16" viewBox="0 0 16 16" fill="none" xmlns="http://www.w3.org/2000/svg">
<g clip-path="url(#clip0_180608_643)">
<rect width="16" height="16" fill="white" fill-opacity="0.01"/>
<g clip-path="url(#clip1_180608_643)">
<path d="M10.9689 10.3244C11.401 10.0922 11.8956 9.96007 12.4224 9.96007H12.4242C12.4778 9.96007 12.5028 9.89578 12.4635 9.86007C11.9157 9.36842 11.2899 8.97133 10.6117 8.68507C10.6046 8.68149 10.5974 8.67971 10.5903 8.67614C11.6992 7.87078 12.4206 6.56185 12.4206 5.08507C12.4206 2.63864 10.4421 0.656494 8.00099 0.656494C5.55992 0.656494 3.58314 2.63864 3.58314 5.08507C3.58314 6.56185 4.30456 7.87078 5.41528 8.67614C5.40814 8.67971 5.40099 8.68149 5.39385 8.68507C4.59564 9.02257 3.87957 9.50649 3.26349 10.1244C2.65098 10.7358 2.16334 11.4605 1.82778 12.2583C1.49762 13.0395 1.31944 13.8764 1.30278 14.7244C1.3023 14.7434 1.30565 14.7624 1.31261 14.7801C1.31958 14.7979 1.33002 14.814 1.34334 14.8277C1.35665 14.8413 1.37256 14.8522 1.39013 14.8596C1.4077 14.867 1.42657 14.8708 1.44564 14.8708H2.51528C2.59206 14.8708 2.65635 14.8083 2.65814 14.7315C2.69385 13.3529 3.24564 12.0619 4.22242 11.0833C5.23135 10.0708 6.57421 9.51364 8.00278 9.51364C9.01528 9.51364 9.98671 9.79399 10.8242 10.319C10.8457 10.3325 10.8704 10.3401 10.8958 10.3411C10.9212 10.342 10.9464 10.3362 10.9689 10.3244ZM8.00278 8.15649C7.18492 8.15649 6.41528 7.83685 5.83492 7.25649C5.54938 6.97169 5.32301 6.6332 5.16885 6.26053C5.01469 5.88785 4.9358 5.48836 4.93671 5.08507C4.93671 4.26542 5.25635 3.49399 5.83492 2.91364C6.41349 2.33328 7.18314 2.01364 8.00278 2.01364C8.82242 2.01364 9.59028 2.33328 10.1706 2.91364C10.4562 3.19844 10.6826 3.53693 10.8367 3.9096C10.9909 4.28228 11.0698 4.68177 11.0689 5.08507C11.0689 5.90471 10.7492 6.67614 10.1706 7.25649C9.59028 7.83685 8.82064 8.15649 8.00278 8.15649ZM14.5706 12.4065H13.0706V10.9065C13.0706 10.8279 13.0064 10.7636 12.9278 10.7636H11.9278C11.8492 10.7636 11.7849 10.8279 11.7849 10.9065V12.4065H10.2849C10.2064 12.4065 10.1421 12.4708 10.1421 12.5494V13.5494C10.1421 13.6279 10.2064 13.6922 10.2849 13.6922H11.7849V15.1922C11.7849 15.2708 11.8492 15.3351 11.9278 15.3351H12.9278C13.0064 15.3351 13.0706 15.2708 13.0706 15.1922V13.6922H14.5706C14.6492 13.6922 14.7135 13.6279 14.7135 13.5494V12.5494C14.7135 12.4708 14.6492 12.4065 14.5706 12.4065Z" fill="white"/>
</g>
</g>
<defs>
<clipPath id="clip0_180608_643">
<rect width="16" height="16" fill="white"/>
</clipPath>
<clipPath id="clip1_180608_643">
<rect width="16" height="16" fill="white"/>
</clipPath>
</defs>
</svg>
